<?xml version="1.0" encoding="UTF-8" standalone="no"?>
<!DOCTYPE svg PUBLIC "-//W3C//DTD SVG 1.1//EN"
 "http://www.w3.org/Graphics/SVG/1.1/DTD/svg11.dtd">
<!-- Generated by graphviz version 2.40.1 (20161225.0304)
 -->
<!-- Title: Tree Pages: 1 -->
<svg width="818pt" height="269pt"
 viewBox="0.00 0.00 818.00 269.00" xmlns="http://www.w3.org/2000/svg" xmlns:xlink="http://www.w3.org/1999/xlink">
<g id="graph0" class="graph" transform="scale(1 1) rotate(0) translate(4 265)">
<title>Tree</title>
<polygon fill="#ffffff" stroke="transparent" points="-4,4 -4,-265 814,-265 814,4 -4,4"/>
<!-- 0 -->
<g id="node1" class="node">
<title>0</title>
<polygon fill="none" stroke="#000000" points="490,-261 292,-261 292,-193 490,-193 490,-261"/>
<text text-anchor="middle" x="391" y="-245.8" font-family="Helvetica,sans-Serif" font-size="14.00" fill="#000000">X[0] &lt;= 3.77</text>
<text text-anchor="middle" x="391" y="-230.8" font-family="Helvetica,sans-Serif" font-size="14.00" fill="#000000">squared_error = 211.301</text>
<text text-anchor="middle" x="391" y="-215.8" font-family="Helvetica,sans-Serif" font-size="14.00" fill="#000000">samples = 2033</text>
<text text-anchor="middle" x="391" y="-200.8" font-family="Helvetica,sans-Serif" font-size="14.00" fill="#000000">value = 17.301</text>
</g>
<!-- 1 -->
<g id="node2" class="node">
<title>1</title>
<polygon fill="none" stroke="#000000" points="378,-157 198,-157 198,-89 378,-89 378,-157"/>
<text text-anchor="middle" x="288" y="-141.8" font-family="Helvetica,sans-Serif" font-size="14.00" fill="#000000">X[0] &lt;= 1.407</text>
<text text-anchor="middle" x="288" y="-126.8" font-family="Helvetica,sans-Serif" font-size="14.00" fill="#000000">squared_error = 41.76</text>
<text text-anchor="middle" x="288" y="-111.8" font-family="Helvetica,sans-Serif" font-size="14.00" fill="#000000">samples = 944</text>
<text text-anchor="middle" x="288" y="-96.8" font-family="Helvetica,sans-Serif" font-size="14.00" fill="#000000">value = 6.841</text>
</g>
<!-- 0&#45;&gt;1 -->
<g id="edge1" class="edge">
<title>0&#45;&gt;1</title>
<path fill="none" stroke="#000000" d="M357.2739,-192.9465C348.2039,-183.7884 338.2955,-173.7838 328.8819,-164.2788"/>
<polygon fill="#000000" stroke="#000000" points="331.3255,-161.7723 321.8018,-157.13 326.3519,-166.6981 331.3255,-161.7723"/>
<text text-anchor="middle" x="321.6811" y="-178.4297" font-family="Helvetica,sans-Serif" font-size="14.00" fill="#000000">True</text>
</g>
<!-- 4 -->
<g id="node5" class="node">
<title>4</title>
<polygon fill="none" stroke="#000000" points="594,-157 396,-157 396,-89 594,-89 594,-157"/>
<text text-anchor="middle" x="495" y="-141.8" font-family="Helvetica,sans-Serif" font-size="14.00" fill="#000000">X[0] &lt;= 5.376</text>
<text text-anchor="middle" x="495" y="-126.8" font-family="Helvetica,sans-Serif" font-size="14.00" fill="#000000">squared_error = 181.209</text>
<text text-anchor="middle" x="495" y="-111.8" font-family="Helvetica,sans-Serif" font-size="14.00" fill="#000000">samples = 1089</text>
<text text-anchor="middle" x="495" y="-96.8" font-family="Helvetica,sans-Serif" font-size="14.00" fill="#000000">value = 26.369</text>
</g>
<!-- 0&#45;&gt;4 -->
<g id="edge4" class="edge">
<title>0&#45;&gt;4</title>
<path fill="none" stroke="#000000" d="M425.0535,-192.9465C434.2116,-183.7884 444.2162,-173.7838 453.7212,-164.2788"/>
<polygon fill="#000000" stroke="#000000" points="456.2738,-166.676 460.87,-157.13 451.324,-161.7262 456.2738,-166.676"/>
<text text-anchor="middle" x="460.87" y="-178.43" font-family="Helvetica,sans-Serif" font-size="14.00" fill="#000000">False</text>
</g>
<!-- 2 -->
<g id="node3" class="node">
<title>2</title>
<polygon fill="none" stroke="#000000" points="180,-53 0,-53 0,0 180,0 180,-53"/>
<text text-anchor="middle" x="90" y="-37.8" font-family="Helvetica,sans-Serif" font-size="14.00" fill="#000000">squared_error = 9.294</text>
<text text-anchor="middle" x="90" y="-22.8" font-family="Helvetica,sans-Serif" font-size="14.00" fill="#000000">samples = 438</text>
<text text-anchor="middle" x="90" y="-7.8" font-family="Helvetica,sans-Serif" font-size="14.00" fill="#000000">value = 2.459</text>
</g>
<!-- 1&#45;&gt;2 -->
<g id="edge2" class="edge">
<title>1&#45;&gt;2</title>
<path fill="none" stroke="#000000" d="M218.1926,-88.9777C197.2409,-78.7664 174.3735,-67.6214 153.8288,-57.6085"/>
<polygon fill="#000000" stroke="#000000" points="155.0907,-54.33 144.568,-53.095 152.0239,-60.6224 155.0907,-54.33"/>
</g>
<!-- 3 -->
<g id="node4" class="node">
<title>3</title>
<polygon fill="none" stroke="#000000" points="378,-53 198,-53 198,0 378,0 378,-53"/>
<text text-anchor="middle" x="288" y="-37.8" font-family="Helvetica,sans-Serif" font-size="14.00" fill="#000000">squared_error = 38.85</text>
<text text-anchor="middle" x="288" y="-22.8" font-family="Helvetica,sans-Serif" font-size="14.00" fill="#000000">samples = 506</text>
<text text-anchor="middle" x="288" y="-7.8" font-family="Helvetica,sans-Serif" font-size="14.00" fill="#000000">value = 10.635</text>
</g>
<!-- 1&#45;&gt;3 -->
<g id="edge3" class="edge">
<title>1&#45;&gt;3</title>
<path fill="none" stroke="#000000" d="M288,-88.9777C288,-80.7364 288,-71.887 288,-63.5153"/>
<polygon fill="#000000" stroke="#000000" points="291.5001,-63.2484 288,-53.2485 284.5001,-63.2485 291.5001,-63.2484"/>
</g>
<!-- 5 -->
<g id="node6" class="node">
<title>5</title>
<polygon fill="none" stroke="#000000" points="594,-53 396,-53 396,0 594,0 594,-53"/>
<text text-anchor="middle" x="495" y="-37.8" font-family="Helvetica,sans-Serif" font-size="14.00" fill="#000000">squared_error = 132.237</text>
<text text-anchor="middle" x="495" y="-22.8" font-family="Helvetica,sans-Serif" font-size="14.00" fill="#000000">samples = 305</text>
<text text-anchor="middle" x="495" y="-7.8" font-family="Helvetica,sans-Serif" font-size="14.00" fill="#000000">value = 22.032</text>
</g>
<!-- 4&#45;&gt;5 -->
<g id="edge5" class="edge">
<title>4&#45;&gt;5</title>
<path fill="none" stroke="#000000" d="M495,-88.9777C495,-80.7364 495,-71.887 495,-63.5153"/>
<polygon fill="#000000" stroke="#000000" points="498.5001,-63.2484 495,-53.2485 491.5001,-63.2485 498.5001,-63.2484"/>
</g>
<!-- 6 -->
<g id="node7" class="node">
<title>6</title>
<polygon fill="none" stroke="#000000" points="810,-53 612,-53 612,0 810,0 810,-53"/>
<text text-anchor="middle" x="711" y="-37.8" font-family="Helvetica,sans-Serif" font-size="14.00" fill="#000000">squared_error = 190.096</text>
<text text-anchor="middle" x="711" y="-22.8" font-family="Helvetica,sans-Serif" font-size="14.00" fill="#000000">samples = 784</text>
<text text-anchor="middle" x="711" y="-7.8" font-family="Helvetica,sans-Serif" font-size="14.00" fill="#000000">value = 28.056</text>
</g>
<!-- 4&#45;&gt;6 -->
<g id="edge6" class="edge">
<title>4&#45;&gt;6</title>
<path fill="none" stroke="#000000" d="M571.1535,-88.9777C594.3188,-78.6284 619.6308,-67.32 642.2758,-57.2032"/>
<polygon fill="#000000" stroke="#000000" points="643.7687,-60.3697 651.4712,-53.095 640.9133,-53.9785 643.7687,-60.3697"/>
</g>
</g>
</svg>